<mxfile host="app.diagrams.net" modified="2023-05-08T08:12:04.303Z" agent="5.0 (Windows NT 10.0; Win64; x64) AppleWebKit/537.36 (KHTML, like Gecko) Chrome/112.0.0.0 Safari/537.36" etag="kuIIRYV1YNK_C9PNSfM-" version="21.0.6" type="github">
  <diagram name="第 1 页" id="1W-o0foTig0R5M3s8DDL">
    <mxGraphModel dx="1434" dy="764" grid="1" gridSize="10" guides="1" tooltips="1" connect="1" arrows="1" fold="1" page="1" pageScale="1" pageWidth="827" pageHeight="1169" math="0" shadow="0">
      <root>
        <mxCell id="0" />
        <mxCell id="1" parent="0" />
        <mxCell id="7m2NvsibEonJBpZYuy1r-24" value="" style="rounded=0;whiteSpace=wrap;html=1;fillColor=none;" parent="1" vertex="1">
          <mxGeometry x="180" y="340" width="300" height="265" as="geometry" />
        </mxCell>
        <mxCell id="7m2NvsibEonJBpZYuy1r-2" value="物理层" style="rounded=1;whiteSpace=wrap;html=1;" parent="1" vertex="1">
          <mxGeometry x="80" y="555" width="80" height="30" as="geometry" />
        </mxCell>
        <mxCell id="7m2NvsibEonJBpZYuy1r-3" value="区块链网络层" style="rounded=1;whiteSpace=wrap;html=1;" parent="1" vertex="1">
          <mxGeometry x="80" y="475" width="80" height="30" as="geometry" />
        </mxCell>
        <mxCell id="7m2NvsibEonJBpZYuy1r-4" value="合约层" style="rounded=1;whiteSpace=wrap;html=1;" parent="1" vertex="1">
          <mxGeometry x="80" y="395" width="80" height="30" as="geometry" />
        </mxCell>
        <mxCell id="7m2NvsibEonJBpZYuy1r-5" value="数据接口层" style="rounded=1;whiteSpace=wrap;html=1;" parent="1" vertex="1">
          <mxGeometry x="80" y="280" width="80" height="30" as="geometry" />
        </mxCell>
        <mxCell id="7m2NvsibEonJBpZYuy1r-7" value="RSU&lt;br&gt;IEEE802.11P" style="rounded=0;whiteSpace=wrap;html=1;" parent="1" vertex="1">
          <mxGeometry x="200" y="540" width="120" height="60" as="geometry" />
        </mxCell>
        <mxCell id="7m2NvsibEonJBpZYuy1r-8" value="主链" style="text;html=1;align=center;verticalAlign=middle;resizable=0;points=[];autosize=1;strokeColor=none;fillColor=none;strokeWidth=4;fontSize=18;fontStyle=1" parent="1" vertex="1">
          <mxGeometry x="230" y="340" width="60" height="40" as="geometry" />
        </mxCell>
        <mxCell id="7m2NvsibEonJBpZYuy1r-9" value="BNC-Raft" style="rounded=0;whiteSpace=wrap;html=1;" parent="1" vertex="1">
          <mxGeometry x="200" y="460" width="120" height="60" as="geometry" />
        </mxCell>
        <mxCell id="7m2NvsibEonJBpZYuy1r-10" value="链码" style="rounded=0;whiteSpace=wrap;html=1;" parent="1" vertex="1">
          <mxGeometry x="200" y="380" width="120" height="60" as="geometry" />
        </mxCell>
        <mxCell id="7m2NvsibEonJBpZYuy1r-11" value="能源交易客户端" style="rounded=0;whiteSpace=wrap;html=1;" parent="1" vertex="1">
          <mxGeometry x="180" y="265" width="300" height="60" as="geometry" />
        </mxCell>
        <mxCell id="7m2NvsibEonJBpZYuy1r-12" value="应用层" style="rounded=1;whiteSpace=wrap;html=1;" parent="1" vertex="1">
          <mxGeometry x="80" y="205" width="80" height="30" as="geometry" />
        </mxCell>
        <mxCell id="7m2NvsibEonJBpZYuy1r-13" value="充电桩、电动汽车、移动端设备" style="rounded=0;whiteSpace=wrap;html=1;" parent="1" vertex="1">
          <mxGeometry x="180" y="190" width="300" height="60" as="geometry" />
        </mxCell>
        <mxCell id="7m2NvsibEonJBpZYuy1r-16" value="OBU&lt;br&gt;IEEE802.11P" style="rounded=0;whiteSpace=wrap;html=1;" parent="1" vertex="1">
          <mxGeometry x="340" y="540" width="120" height="60" as="geometry" />
        </mxCell>
        <mxCell id="7m2NvsibEonJBpZYuy1r-18" value="POW" style="rounded=0;whiteSpace=wrap;html=1;" parent="1" vertex="1">
          <mxGeometry x="340" y="460" width="120" height="60" as="geometry" />
        </mxCell>
        <mxCell id="7m2NvsibEonJBpZYuy1r-19" value="智能合约" style="rounded=0;whiteSpace=wrap;html=1;" parent="1" vertex="1">
          <mxGeometry x="340" y="380" width="120" height="60" as="geometry" />
        </mxCell>
        <mxCell id="7m2NvsibEonJBpZYuy1r-23" value="子链" style="text;html=1;align=center;verticalAlign=middle;resizable=0;points=[];autosize=1;strokeColor=none;fillColor=none;strokeWidth=4;fontSize=18;fontStyle=1" parent="1" vertex="1">
          <mxGeometry x="370" y="340" width="60" height="40" as="geometry" />
        </mxCell>
        <mxCell id="7m2NvsibEonJBpZYuy1r-25" value="" style="rounded=0;whiteSpace=wrap;html=1;fillColor=none;" parent="1" vertex="1">
          <mxGeometry x="70" y="340" width="100" height="265" as="geometry" />
        </mxCell>
        <mxCell id="7m2NvsibEonJBpZYuy1r-26" value="DLHBC" style="text;html=1;align=center;verticalAlign=middle;resizable=0;points=[];autosize=1;strokeColor=none;fillColor=none;fontSize=13;fontStyle=1" parent="1" vertex="1">
          <mxGeometry x="85" y="350" width="70" height="30" as="geometry" />
        </mxCell>
      </root>
    </mxGraphModel>
  </diagram>
</mxfile>
